<svg width="29" height="29" viewBox="0 0 29 29" fill="none" xmlns="http://www.w3.org/2000/svg">
<circle cx="14.5" cy="14.5" r="14.5" fill="#CDA58B"/>
<path d="M14.1023 14.9091C14.1023 16.0062 13.8968 16.9458 13.4858 17.728C13.0781 18.5069 12.5213 19.1035 11.8153 19.5178C11.1127 19.9321 10.3156 20.1392 9.42401 20.1392C8.53243 20.1392 7.73366 19.9321 7.0277 19.5178C6.32505 19.1001 5.76823 18.5019 5.35724 17.723C4.94957 16.9408 4.74574 16.0028 4.74574 14.9091C4.74574 13.812 4.94957 12.8741 5.35724 12.0952C5.76823 11.313 6.32505 10.7147 7.0277 10.3004C7.73366 9.88613 8.53243 9.67898 9.42401 9.67898C10.3156 9.67898 11.1127 9.88613 11.8153 10.3004C12.5213 10.7147 13.0781 11.313 13.4858 12.0952C13.8968 12.8741 14.1023 13.812 14.1023 14.9091ZM12.2479 14.9091C12.2479 14.1368 12.1269 13.4856 11.8849 12.9553C11.6463 12.4216 11.3149 12.0189 10.8906 11.7472C10.4664 11.4721 9.97751 11.3345 9.42401 11.3345C8.8705 11.3345 8.38163 11.4721 7.95739 11.7472C7.53314 12.0189 7.20005 12.4216 6.9581 12.9553C6.71946 13.4856 6.60014 14.1368 6.60014 14.9091C6.60014 15.6813 6.71946 16.3343 6.9581 16.8679C7.20005 17.3982 7.53314 17.8009 7.95739 18.076C8.38163 18.3478 8.8705 18.4837 9.42401 18.4837C9.97751 18.4837 10.4664 18.3478 10.8906 18.076C11.3149 17.8009 11.6463 17.3982 11.8849 16.8679C12.1269 16.3343 12.2479 15.6813 12.2479 14.9091ZM15.8461 20V9.81818H17.6905V14.4964H17.8148L21.7871 9.81818H24.0392L20.1017 14.3871L24.074 20H21.8567L18.8191 15.6349L17.6905 16.9673V20H15.8461Z" fill="white"/>
</svg>
